<svg xmlns="http://www.w3.org/2000/svg" width="24" height="24" viewBox="0 0 24 24" fill="none">
<path d="M2 4.8C2 3.11984 2 2.27976 2.32698 1.63803C2.6146 1.07354 3.07354 0.614601 3.63803 0.32698C4.27976 0 5.11984 0 6.8 0H13.3451C14.0789 0 14.4458 0 14.791 0.0828902C15.0971 0.15638 15.3898 0.277593 15.6582 0.442079C15.9609 0.627605 16.2204 0.887032 16.7392 1.40589L20.5941 5.26078C21.113 5.77963 21.3724 6.03906 21.5579 6.34181C21.7224 6.61023 21.8436 6.90286 21.9171 7.20897C22 7.55423 22 7.92112 22 8.65489V19.2C22 20.8802 22 21.7202 21.673 22.362C21.3854 22.9265 20.9265 23.3854 20.362 23.673C19.7202 24 18.8802 24 17.2 24H6.8C5.11984 24 4.27976 24 3.63803 23.673C3.07354 23.3854 2.6146 22.9265 2.32698 22.362C2 21.7202 2 20.8802 2 19.2V4.8Z" fill="#4080FF"/>
<path d="M15.3335 1.15882C15.3335 0.795333 15.3335 0.613588 15.4054 0.52943C15.4677 0.456407 15.5613 0.417654 15.657 0.425189C15.7674 0.433872 15.8959 0.562385 16.1529 0.819411L21.1808 5.84726C21.4378 6.10428 21.5663 6.23279 21.575 6.34313C21.5825 6.43886 21.5438 6.53242 21.4707 6.59479C21.3866 6.66667 21.2048 6.66667 20.8413 6.66667H20.1335C18.4533 6.66667 17.6133 6.66667 16.9715 6.33969C16.407 6.05207 15.9481 5.59312 15.6605 5.02864C15.3335 4.3869 15.3335 3.54682 15.3335 1.86667V1.15882Z" fill="white" fill-opacity="0.3"/>
<path d="M10.107 11.4182L7.29915 14.3736L10.107 17.329C10.2077 17.4351 10.2059 17.6052 10.103 17.709L10.1019 17.7101L9.72464 18.086C9.62151 18.1887 9.45718 18.1864 9.35683 18.0808L6.01338 14.5616C5.91416 14.4571 5.91416 14.2902 6.01338 14.1857L9.35683 10.6665C9.45718 10.5609 9.62151 10.5586 9.72464 10.6613L10.1019 11.0372C10.2054 11.1403 10.2082 11.3105 10.108 11.4171L10.107 11.4182ZM16.7971 14.3736L14.1899 11.4182C14.0963 11.3122 14.098 11.1421 14.1936 11.0383L14.1946 11.0372L14.5449 10.6613C14.6407 10.5586 14.7933 10.5609 14.8864 10.6665L17.9911 14.1857C18.0832 14.2902 18.0832 14.4571 17.9911 14.5616L14.8864 18.0808C14.7933 18.1864 14.6407 18.1887 14.5449 18.086L14.1946 17.7101C14.0984 17.6069 14.0959 17.4368 14.1889 17.3302L14.1899 17.329L16.7971 14.3736ZM12.698 8.76927L13.2444 8.82788C13.3936 8.84387 13.5006 8.96904 13.4833 9.10743L12.179 19.4537C12.1615 19.5919 12.0267 19.691 11.8776 19.675L11.3312 19.6164C11.182 19.6004 11.0751 19.4752 11.0923 19.3368L12.3967 8.99055C12.4141 8.85231 12.549 8.75329 12.698 8.76927Z" fill="white"/>
</svg>
