<svg xmlns="http://www.w3.org/2000/svg" width="24" height="24" viewBox="0 0 24 24" fill="none">
<path d="M2 4.8C2 3.11984 2 2.27976 2.32698 1.63803C2.6146 1.07354 3.07354 0.614601 3.63803 0.32698C4.27976 0 5.11984 0 6.8 0H13.3451C14.0789 0 14.4458 0 14.791 0.0828902C15.0971 0.15638 15.3898 0.277593 15.6582 0.442079C15.9609 0.627605 16.2204 0.887032 16.7392 1.40589L20.5941 5.26078C21.113 5.77963 21.3724 6.03906 21.5579 6.34181C21.7224 6.61023 21.8436 6.90286 21.9171 7.20897C22 7.55423 22 7.92112 22 8.65489V19.2C22 20.8802 22 21.7202 21.673 22.362C21.3854 22.9265 20.9265 23.3854 20.362 23.673C19.7202 24 18.8802 24 17.2 24H6.8C5.11984 24 4.27976 24 3.63803 23.673C3.07354 23.3854 2.6146 22.9265 2.32698 22.362C2 21.7202 2 20.8802 2 19.2V4.8Z" fill="#4080FF"/>
<path d="M15.3335 1.15882C15.3335 0.795333 15.3335 0.613588 15.4054 0.52943C15.4677 0.456407 15.5613 0.417654 15.657 0.425189C15.7674 0.433872 15.8959 0.562385 16.1529 0.819411L21.1808 5.84726C21.4378 6.10428 21.5663 6.23279 21.575 6.34313C21.5825 6.43886 21.5438 6.53242 21.4707 6.59479C21.3866 6.66667 21.2048 6.66667 20.8413 6.66667H20.1335C18.4533 6.66667 17.6133 6.66667 16.9715 6.33969C16.407 6.05207 15.9481 5.59312 15.6605 5.02864C15.3335 4.3869 15.3335 3.54682 15.3335 1.86667V1.15882Z" fill="white" fill-opacity="0.3"/>
<path d="M12.0853 10.2812C13.0879 10.2812 13.9115 10.6076 14.556 11.1685C14.8693 11.4388 15.1409 11.9106 15.333 12.3115C15.4979 12.6556 15.2359 13.0297 14.8544 13.0297H14.6413C14.4411 13.0297 14.2569 12.9215 14.1462 12.7547C13.9914 12.5215 13.7524 12.1991 13.5176 12.0319C13.1356 11.7515 12.6463 11.6035 12.0495 11.6035C11.1543 11.6035 10.4859 11.9427 10.0323 12.6056C9.61454 13.192 9.35697 13.9975 9.35697 15.0429C9.35697 16.1137 9.61454 16.9529 10.0204 17.5266C10.462 18.1385 11.1543 18.5119 12.0853 18.5119C12.694 18.5119 13.1953 18.2915 13.5773 17.9855C13.8148 17.7841 14.0277 17.4032 14.1635 17.1218C14.2634 16.9148 14.4689 16.773 14.6987 16.773H14.9476C15.3116 16.773 15.572 17.1162 15.4416 17.456C15.2538 17.9453 14.9531 18.576 14.556 18.9181C13.8461 19.5298 13.2812 19.7723 12.0853 19.8045C10.7119 19.8415 9.61454 19.2859 8.92226 18.3425C8.31353 17.5266 8.01514 16.4302 8.01514 15.0533C8.01514 13.702 8.32547 12.5929 8.95807 11.7515C9.67422 10.7826 10.7246 10.2812 12.0853 10.2812Z" fill="white"/>
</svg>
