<svg xmlns="http://www.w3.org/2000/svg" width="24" height="24" viewBox="0 0 24 24" fill="none">
<path d="M2 4.8C2 3.11984 2 2.27976 2.32698 1.63803C2.6146 1.07354 3.07354 0.614601 3.63803 0.32698C4.27976 0 5.11984 0 6.8 0H13.3451C14.0789 0 14.4458 0 14.791 0.0828902C15.0971 0.15638 15.3898 0.277593 15.6582 0.442079C15.9609 0.627605 16.2204 0.887032 16.7392 1.40589L20.5941 5.26078C21.113 5.77963 21.3724 6.03906 21.5579 6.34181C21.7224 6.61023 21.8436 6.90286 21.9171 7.20897C22 7.55423 22 7.92112 22 8.65489V19.2C22 20.8802 22 21.7202 21.673 22.362C21.3854 22.9265 20.9265 23.3854 20.362 23.673C19.7202 24 18.8802 24 17.2 24H6.8C5.11984 24 4.27976 24 3.63803 23.673C3.07354 23.3854 2.6146 22.9265 2.32698 22.362C2 21.7202 2 20.8802 2 19.2V4.8Z" fill="#4080FF"/>
<path d="M15.3335 1.15882C15.3335 0.795333 15.3335 0.613588 15.4054 0.52943C15.4677 0.456407 15.5613 0.417654 15.657 0.425189C15.7674 0.433872 15.8959 0.562385 16.1529 0.819411L21.1808 5.84726C21.4378 6.10428 21.5663 6.23279 21.575 6.34313C21.5825 6.43886 21.5438 6.53242 21.4707 6.59479C21.3866 6.66667 21.2048 6.66667 20.8413 6.66667H20.1335C18.4533 6.66667 17.6133 6.66667 16.9715 6.33969C16.407 6.05207 15.9481 5.59312 15.6605 5.02864C15.3335 4.3869 15.3335 3.54682 15.3335 1.86667V1.15882Z" fill="white" fill-opacity="0.3"/>
<path d="M12.0048 12.2775L10.3664 18.3403C10.3465 18.4139 10.2798 18.465 10.2036 18.465H9.23859C9.16313 18.465 9.09684 18.4149 9.07628 18.3423L6.85457 10.4979C6.82918 10.4082 6.88127 10.315 6.97091 10.2896C6.98587 10.2854 7.00134 10.2832 7.01689 10.2832H7.98463C8.06154 10.2832 8.12871 10.3352 8.14796 10.4097L9.72894 16.5245L11.3707 10.4082C11.3905 10.3344 11.4574 10.2832 11.5337 10.2832H12.4767C12.5531 10.2832 12.62 10.3346 12.6397 10.4084L14.271 16.523L15.8515 10.4097C15.8708 10.3352 15.938 10.2832 16.0149 10.2832H16.9826C17.0758 10.2832 17.1513 10.3587 17.1513 10.4519C17.1513 10.4674 17.1492 10.4829 17.1449 10.4979L14.9232 18.3423C14.9027 18.4149 14.8364 18.465 14.7609 18.465H13.796C13.7197 18.465 13.6528 18.4138 13.6331 18.3401L12.0048 12.2775Z" fill="white"/>
</svg>
