<svg xmlns="http://www.w3.org/2000/svg" width="24" height="24" viewBox="0 0 24 24" fill="none">
<path d="M2 4.8C2 3.11984 2 2.27976 2.32698 1.63803C2.6146 1.07354 3.07354 0.614601 3.63803 0.32698C4.27976 0 5.11984 0 6.8 0H13.3451C14.0789 0 14.4458 0 14.791 0.0828902C15.0971 0.15638 15.3898 0.277593 15.6582 0.442079C15.9609 0.627605 16.2204 0.887032 16.7392 1.40589L20.5941 5.26078C21.113 5.77963 21.3724 6.03906 21.5579 6.34181C21.7224 6.61023 21.8436 6.90286 21.9171 7.20897C22 7.55423 22 7.92112 22 8.65489V19.2C22 20.8802 22 21.7202 21.673 22.362C21.3854 22.9265 20.9265 23.3854 20.362 23.673C19.7202 24 18.8802 24 17.2 24H6.8C5.11984 24 4.27976 24 3.63803 23.673C3.07354 23.3854 2.6146 22.9265 2.32698 22.362C2 21.7202 2 20.8802 2 19.2V4.8Z" fill="#FF2638"/>
<path d="M15.3335 1.15882C15.3335 0.795333 15.3335 0.613588 15.4054 0.52943C15.4677 0.456407 15.5613 0.417654 15.657 0.425189C15.7674 0.433872 15.8959 0.562385 16.1529 0.819411L21.1808 5.84726C21.4378 6.10428 21.5663 6.23279 21.575 6.34313C21.5825 6.43886 21.5438 6.53242 21.4707 6.59479C21.3866 6.66667 21.2048 6.66667 20.8413 6.66667H20.1335C18.4533 6.66667 17.6133 6.66667 16.9715 6.33969C16.407 6.05207 15.9481 5.59312 15.6605 5.02864C15.3335 4.3869 15.3335 3.54682 15.3335 1.86667V1.15882Z" fill="white" fill-opacity="0.3"/>
<path d="M18.1677 15.9458C17.8919 15.6229 17.3264 15.466 16.4389 15.466C15.923 15.466 15.2123 15.4789 14.4981 15.5849C12.5474 14.1786 12.0902 12.6679 12.0902 12.6679C12.0902 12.6679 12.4233 11.8316 12.4445 10.4657C12.4578 9.6022 12.321 8.95822 11.9719 8.68137C11.8231 8.56345 11.6072 8.46484 11.3898 8.46484C11.2202 8.46484 11.0613 8.51397 10.9312 8.6079C9.91705 9.33956 11.0242 12.7888 11.0539 12.8806C10.5753 14.0419 9.97242 15.2723 9.35193 16.3533C9.15031 16.7046 9.15031 16.7113 9.01489 16.8708C9.01489 16.8708 7.2397 17.7512 6.40728 18.7274C5.93696 19.2789 5.9217 19.6576 5.94666 19.9414C5.98691 20.2818 6.42077 20.5861 6.85755 20.5861C6.87567 20.5861 6.8939 20.5855 6.91175 20.5844C7.35566 20.5574 7.84943 20.4353 8.3989 19.9155C8.79667 19.5392 9.24399 18.5174 9.81904 17.5175C11.4689 17.0548 12.9209 16.7252 14.1377 16.5372C15.0301 17.0107 16.3577 17.5469 17.2615 17.5469C17.5646 17.5469 17.8085 17.486 17.9863 17.3658C18.199 17.2221 18.2894 17.0429 18.3455 16.7113C18.4017 16.3797 18.3235 16.1283 18.1677 15.9458ZM16.228 16.4649C17.052 16.4649 17.4981 16.6102 17.7273 16.7322C17.798 16.7698 17.8494 16.8061 17.8859 16.8364C17.8213 16.8865 17.6943 16.9497 17.4647 16.9497C17.084 16.9497 16.5843 16.7884 15.9749 16.4692C16.0616 16.4663 16.146 16.4649 16.228 16.4649ZM11.4955 9.19557L11.4969 9.19214C11.6255 9.28689 11.6856 9.95226 11.6735 10.3381C11.6573 10.8558 11.6535 11.0559 11.5885 11.374C11.4123 10.7108 11.3998 9.51882 11.4955 9.19557ZM11.5361 14.0406C11.938 14.7026 12.4476 15.373 13.0219 15.8849C11.9011 16.1251 10.9704 16.3456 10.3008 16.58C11.0186 15.3369 11.489 14.1638 11.5361 14.0406ZM7.01061 19.6494C7.11203 19.4994 7.38912 19.2087 8.09182 18.6466C7.71469 19.5154 7.29115 19.6494 6.89741 19.8588C6.92713 19.7899 6.96452 19.7176 7.01061 19.6494Z" fill="white"/>
</svg>
