<svg xmlns="http://www.w3.org/2000/svg" width="24" height="24" viewBox="0 0 24 24" fill="none">
<path d="M2 4.8C2 3.11984 2 2.27976 2.32698 1.63803C2.6146 1.07354 3.07354 0.614601 3.63803 0.32698C4.27976 0 5.11984 0 6.8 0H13.3451C14.0789 0 14.4458 0 14.791 0.0828902C15.0971 0.15638 15.3898 0.277593 15.6582 0.442079C15.9609 0.627605 16.2204 0.887032 16.7392 1.40589L20.5941 5.26078C21.113 5.77963 21.3724 6.03906 21.5579 6.34181C21.7224 6.61023 21.8436 6.90286 21.9171 7.20897C22 7.55423 22 7.92112 22 8.65489V19.2C22 20.8802 22 21.7202 21.673 22.362C21.3854 22.9265 20.9265 23.3854 20.362 23.673C19.7202 24 18.8802 24 17.2 24H6.8C5.11984 24 4.27976 24 3.63803 23.673C3.07354 23.3854 2.6146 22.9265 2.32698 22.362C2 21.7202 2 20.8802 2 19.2V4.8Z" fill="#4080FF"/>
<path d="M15.3335 1.15882C15.3335 0.795333 15.3335 0.613588 15.4054 0.52943C15.4677 0.456407 15.5613 0.417654 15.657 0.425189C15.7674 0.433872 15.8959 0.562385 16.1529 0.819411L21.1808 5.84726C21.4378 6.10428 21.5663 6.23279 21.575 6.34313C21.5825 6.43886 21.5438 6.53242 21.4707 6.59479C21.3866 6.66667 21.2048 6.66667 20.8413 6.66667H20.1335C18.4533 6.66667 17.6133 6.66667 16.9715 6.33969C16.407 6.05207 15.9481 5.59312 15.6605 5.02864C15.3335 4.3869 15.3335 3.54682 15.3335 1.86667V1.15882Z" fill="white" fill-opacity="0.3"/>
<path d="M15.8091 9.22266C16.1598 9.22266 16.4441 9.50248 16.4441 9.84766V18.5977C16.4441 18.9428 16.1598 19.2227 15.8091 19.2227H8.1901C7.83944 19.2227 7.55518 18.9428 7.55518 18.5977V9.84766C7.55518 9.50248 7.83944 9.22266 8.1901 9.22266H15.8091ZM13.2695 16.0977H10.7298V18.2852H13.2695V16.0977ZM12.6345 16.7227V17.4459H11.3647V16.7227H12.6345ZM13.2987 11.7227H11.9996V12.9727H10.7298V14.2227H11.9996V15.4727H13.2987V14.2227H12.0289V12.9727H13.2987V11.7227ZM11.9996 10.4727H10.7298V11.7227H11.9996V10.4727Z" fill="white"/>
</svg>
