<svg xmlns="http://www.w3.org/2000/svg" width="24" height="24" viewBox="0 0 24 24" fill="none">
<path d="M7 4.5L7.55334 3.12635C7.70579 2.74789 8.07289 2.5 8.48091 2.5H15.4811C15.8806 2.5 16.2418 2.73779 16.3997 3.10478L17 4.5H21C22.1 4.5 23 5.4 23 6.5V19.5C23 20.6 22.1 21.5 21 21.5H3C1.9 21.5 1 20.6 1 19.5V6.5C1 5.4 1.9 4.5 3 4.5H7ZM3 6.5V19.5H21V6.5H3ZM12 16C13.6569 16 15 14.6569 15 13C15 11.3431 13.6569 10 12 10C10.3431 10 9 11.3431 9 13C9 14.6569 10.3431 16 12 16ZM12 18C9.23858 18 7 15.7614 7 13C7 10.2386 9.23858 8 12 8C14.7614 8 17 10.2386 17 13C17 15.7614 14.7614 18 12 18Z" fill="white"/>
</svg>
