<svg xmlns="http://www.w3.org/2000/svg" width="25" height="24" viewBox="0 0 25 24" fill="none">
<path d="M19.3333 8.72426V17.7C19.3333 17.8657 19.199 18 19.0333 18H13.6103L13.6092 18H5.05768C4.79041 18 4.65656 17.6769 4.84555 17.4879L9.12129 13.2121C9.23844 13.095 9.42839 13.095 9.54555 13.2121L11.8334 15.5L18.8212 8.51213C19.0102 8.32314 19.3333 8.45699 19.3333 8.72426Z" fill="white"/>
<path d="M7.3335 10C8.43807 10 9.3335 9.10457 9.3335 8C9.3335 6.89543 8.43807 6 7.3335 6C6.22893 6 5.3335 6.89543 5.3335 8C5.3335 9.10457 6.22893 10 7.3335 10Z" fill="white"/>
<path fill-rule="evenodd" clip-rule="evenodd" d="M1.3335 4C1.3335 2.9 2.2335 2 3.3335 2H21.3335C22.4335 2 23.3335 2.9 23.3335 4V20C23.3335 21.1 22.4335 22 21.3335 22H3.3335C2.2335 22 1.3335 21.1 1.3335 20V4ZM21.3335 4H3.3335V20H21.3335V4Z" fill="white"/>
</svg>
