<svg xmlns="http://www.w3.org/2000/svg" width="16" height="17" viewBox="0 0 16 17" fill="none">
<path d="M7.99935 14.2025C11.313 14.2025 13.9994 11.5161 13.9994 8.20247C13.9994 4.88881 11.313 2.20247 7.99935 2.20247C4.68568 2.20247 1.99935 4.88881 1.99935 8.20247C1.99935 11.5161 4.68568 14.2025 7.99935 14.2025ZM7.99935 15.5358C3.94935 15.5358 0.666016 12.2525 0.666016 8.20247C0.666016 4.15247 3.94935 0.869141 7.99935 0.869141C12.0494 0.869141 15.3327 4.15247 15.3327 8.20247C15.3327 12.2525 12.0494 15.5358 7.99935 15.5358ZM7.33269 10.5358V7.86914C6.9645 7.86914 6.66602 7.57066 6.66602 7.20247C6.66602 6.83428 6.9645 6.53581 7.33268 6.53581H8.00176C8.36901 6.53581 8.66713 6.83282 8.66769 7.20007C8.66937 8.31197 8.66602 9.42392 8.66602 10.5358H8.99935C9.36754 10.5358 9.66602 10.8343 9.66602 11.2025C9.66602 11.5707 9.36754 11.8691 8.99935 11.8691H6.99935C6.63116 11.8691 6.33268 11.5707 6.33268 11.2025C6.33268 10.8343 6.63116 10.5358 6.99935 10.5358H7.33269ZM7.99935 5.86914C7.63116 5.86914 7.33269 5.57066 7.33269 5.20247C7.33269 4.83428 7.63116 4.53581 7.99935 4.53581C8.36754 4.53581 8.66602 4.83428 8.66602 5.20247C8.66602 5.57066 8.36754 5.86914 7.99935 5.86914Z" fill="#202945" fill-opacity="0.62" style="fill:#202945;fill:color(display-p3 0.1255 0.1608 0.2706);fill-opacity:0.62;"/>
</svg>
