<svg xmlns="http://www.w3.org/2000/svg" width="16" height="16" viewBox="0 0 16 16" fill="none">
<path d="M3.33268 9.66667C3.33268 9.29848 3.63116 9 3.99935 9H11.9993C12.3675 9 12.666 9.29848 12.666 9.66667C12.666 10.0349 12.3675 10.3333 11.9993 10.3333H3.99935C3.63116 10.3333 3.33268 10.0349 3.33268 9.66667Z" fill="#0F1528" fill-opacity="0.82" style="fill:#0F1528;fill:color(display-p3 0.0588 0.0824 0.1569);fill-opacity:0.82;"/>
<path d="M3.99935 5.66667C3.63116 5.66667 3.33268 5.96514 3.33268 6.33333C3.33268 6.70152 3.63116 7 3.99935 7H4.33268C4.70087 7 4.99935 6.70152 4.99935 6.33333C4.99935 5.96514 4.70087 5.66667 4.33268 5.66667H3.99935Z" fill="#0F1528" fill-opacity="0.82" style="fill:#0F1528;fill:color(display-p3 0.0588 0.0824 0.1569);fill-opacity:0.82;"/>
<path d="M6.33268 6.33333C6.33268 5.96514 6.63116 5.66667 6.99935 5.66667H7.33268C7.70087 5.66667 7.99935 5.96514 7.99935 6.33333C7.99935 6.70152 7.70087 7 7.33268 7H6.99935C6.63116 7 6.33268 6.70152 6.33268 6.33333Z" fill="#0F1528" fill-opacity="0.82" style="fill:#0F1528;fill:color(display-p3 0.0588 0.0824 0.1569);fill-opacity:0.82;"/>
<path d="M9.99935 5.66667C9.63116 5.66667 9.33268 5.96514 9.33268 6.33333C9.33268 6.70152 9.63116 7 9.99935 7H11.9993C12.3675 7 12.666 6.70152 12.666 6.33333C12.666 5.96514 12.3675 5.66667 11.9993 5.66667H9.99935Z" fill="#0F1528" fill-opacity="0.82" style="fill:#0F1528;fill:color(display-p3 0.0588 0.0824 0.1569);fill-opacity:0.82;"/>
<path fill-rule="evenodd" clip-rule="evenodd" d="M1.99935 2C1.26297 2 0.666016 2.59695 0.666016 3.33333V12.6667C0.666016 13.403 1.26297 14 1.99935 14H13.9993C14.7357 14 15.3327 13.403 15.3327 12.6667V3.33333C15.3327 2.59695 14.7357 2 13.9993 2H1.99935ZM3.33268 3.33333C2.5963 3.33333 1.99935 3.93029 1.99935 4.66667V11.3333C1.99935 12.0697 2.5963 12.6667 3.33268 12.6667H12.666C13.4024 12.6667 13.9993 12.0697 13.9993 11.3333V4.66667C13.9993 3.93029 13.4024 3.33333 12.666 3.33333H3.33268Z" fill="#0F1528" fill-opacity="0.82" style="fill:#0F1528;fill:color(display-p3 0.0588 0.0824 0.1569);fill-opacity:0.82;"/>
</svg>
