<svg xmlns="http://www.w3.org/2000/svg" width="16" height="16" viewBox="0 0 16 16" fill="none">
<path d="M8 0.666016C6.15905 0.666016 4.66667 2.1584 4.66667 3.99935V7.33268C4.66667 9.17363 6.15905 10.666 8 10.666C9.84095 10.666 11.3333 9.17363 11.3333 7.33268V3.99935C11.3333 2.1584 9.84095 0.666016 8 0.666016ZM10 7.33268C10 8.43725 9.10457 9.33268 8 9.33268C6.89543 9.33268 6 8.43725 6 7.33268V3.99935C6 2.89478 6.89543 1.99935 8 1.99935C9.10457 1.99935 10 2.89478 10 3.99935V7.33268Z" fill="#0F1528" fill-opacity="0.82" style="fill:#0F1528;fill:color(display-p3 0.0588 0.0824 0.1569);fill-opacity:0.82;"/>
<path d="M13.3333 5.99935C12.9651 5.99935 12.6667 6.29783 12.6667 6.66602V7.33268C12.6667 9.91001 10.5773 11.9993 8 11.9993C5.42267 11.9993 3.33333 9.91001 3.33333 7.33268V6.66602C3.33333 6.29783 3.03486 5.99935 2.66667 5.99935C2.29848 5.99935 2 6.29783 2 6.66602V7.33268C2 10.4211 4.33337 12.9644 7.33333 13.2961V14.9993C7.33333 15.3675 7.63181 15.666 8 15.666C8.36819 15.666 8.66667 15.3675 8.66667 14.9993V13.2961C11.6666 12.9644 14 10.4211 14 7.33268V6.66602C14 6.29783 13.7015 5.99935 13.3333 5.99935Z" fill="#0F1528" fill-opacity="0.82" style="fill:#0F1528;fill:color(display-p3 0.0588 0.0824 0.1569);fill-opacity:0.82;"/>
</svg>
