<svg xmlns="http://www.w3.org/2000/svg" width="20" height="20" viewBox="0 0 20 20" fill="none">
<path d="M9.16683 6.66732V9.16732H6.66683C6.20659 9.16732 5.8335 9.54041 5.8335 10.0007C5.8335 10.4609 6.20659 10.834 6.66683 10.834H9.16683V13.334C9.16683 13.7942 9.53992 14.1673 10.0002 14.1673C10.4604 14.1673 10.8335 13.7942 10.8335 13.334V10.834H13.3335C13.7937 10.834 14.1668 10.4609 14.1668 10.0007C14.1668 9.54041 13.7937 9.16732 13.3335 9.16732H10.8335V6.66732C10.8335 6.20708 10.4604 5.83398 10.0002 5.83398C9.53992 5.83398 9.16683 6.20708 9.16683 6.66732Z" fill="#060709" fill-opacity="0.8"/>
</svg>
