<svg xmlns="http://www.w3.org/2000/svg" width="14" height="14" viewBox="0 0 14 14" fill="none">
  <path
    d="M6.73982 1.45097L3.49992 4.08339V9.91672L6.73982 12.5491C7.31164 13.0137 8.16658 12.6068 8.16658 11.87V2.13007C8.16658 1.39329 7.31164 0.986364 6.73982 1.45097Z"
    fill="#FFF" />
  <path
    d="M1.16659 4.08339C0.844419 4.08339 0.583252 4.34456 0.583252 4.66672V9.33339C0.583252 9.65556 0.844419 9.91672 1.16659 9.91672H2.33325V4.08339H1.16659Z"
    fill="#FFF" />
  <path
    d="M9.54966 4.79661C9.8001 4.59395 10.1674 4.63269 10.3701 4.88313C10.8439 5.46872 11.1481 6.14916 11.1481 7.00008C11.1481 7.851 10.8439 8.53144 10.3701 9.11702C10.1674 9.36746 9.8001 9.4062 9.54966 9.20354C9.29922 9.00088 9.26048 8.63357 9.46314 8.38313C9.79999 7.96685 9.98142 7.53834 9.98142 7.00008C9.98142 6.46182 9.79999 6.0333 9.46314 5.61702C9.26048 5.36658 9.29922 4.99927 9.54966 4.79661Z"
    fill="#FFF" />
</svg>
