<svg xmlns="http://www.w3.org/2000/svg" width="15" height="14" viewBox="0 0 15 14" fill="none">
  <path
    d="M7.02952 12.7065L3.16683 9.91673V4.0834L7.02953 1.29367C7.60819 0.875752 8.41683 1.28922 8.41683 2.00302V11.9971C8.41683 12.7109 7.60819 13.1244 7.02952 12.7065ZM4.3335 9.3202L7.25016 11.4267V2.57345L4.3335 4.67993V9.3202Z"  fill="#1C1D23" />
  <path
    d="M1.41683 4.08344C1.09466 4.08344 0.833496 4.3446 0.833496 4.66677V9.33344C0.833496 9.6556 1.09466 9.91677 1.41683 9.91677H2.00016V4.08344H1.41683Z"
    fill="#1C1D23" />
  <path
    d="M9.79991 4.79666C10.0503 4.594 10.4177 4.63274 10.6203 4.88318C11.0942 5.46876 11.3983 6.14921 11.3983 7.00012C11.3983 7.85104 11.0942 8.53148 10.6203 9.11706C10.4177 9.36751 10.0503 9.40624 9.79991 9.20359C9.54946 9.00093 9.51073 8.63362 9.71338 8.38318C10.0502 7.9669 10.2317 7.53838 10.2317 7.00012C10.2317 6.46187 10.0502 6.03334 9.71338 5.61706C9.51073 5.36662 9.54946 4.99931 9.79991 4.79666Z"
     fill="#1C1D23" />
  <path
    d="M11.7225 2.6523C11.4825 2.43744 11.1137 2.45787 10.8988 2.69793C10.684 2.93798 10.7044 3.30677 10.9445 3.52162C11.9001 4.37696 12.5002 5.61809 12.5002 7.00015C12.5002 8.3822 11.9001 9.62334 10.9445 10.4787C10.7044 10.6935 10.684 11.0623 10.8988 11.3024C11.1137 11.5424 11.4825 11.5629 11.7225 11.348C12.915 10.2807 13.6668 8.72784 13.6668 7.00015C13.6668 5.27245 12.915 3.71959 11.7225 2.6523Z"
    fill="#1C1D23" />
</svg>


